<?xml version="1.0" encoding="UTF-8" standalone="no"?>
<!DOCTYPE svg PUBLIC "-//W3C//DTD SVG 1.1//EN"
 "http://www.w3.org/Graphics/SVG/1.1/DTD/svg11.dtd">
<!-- Generated by graphviz version 2.43.0 (0)
 -->
<!-- Title: snakemake_dag Pages: 1 -->
<svg width="1059pt" height="265pt"
 viewBox="0.00 0.00 1058.50 265.00" xmlns="http://www.w3.org/2000/svg" xmlns:xlink="http://www.w3.org/1999/xlink">
<g id="graph0" class="graph" transform="scale(1 1) rotate(0) translate(4 261)">
<title>snakemake_dag</title>
<polygon fill="white" stroke="transparent" points="-4,4 -4,-261 1054.5,-261 1054.5,4 -4,4"/>
<!-- 0 -->
<g id="node1" class="node">
<title>0</title>
<path fill="none" stroke="#56a2d8" stroke-width="2" stroke-dasharray="5,2" d="M515,-36C515,-36 485,-36 485,-36 479,-36 473,-30 473,-24 473,-24 473,-12 473,-12 473,-6 479,0 485,0 485,0 515,0 515,0 521,0 527,-6 527,-12 527,-12 527,-24 527,-24 527,-30 521,-36 515,-36"/>
<text text-anchor="middle" x="500" y="-15.5" font-family="sans" font-size="10.00">all</text>
</g>
<!-- 1 -->
<g id="node2" class="node">
<title>1</title>
<path fill="none" stroke="#c6d856" stroke-width="2" stroke-dasharray="5,2" d="M515,-108C515,-108 485,-108 485,-108 479,-108 473,-102 473,-96 473,-96 473,-84 473,-84 473,-78 479,-72 485,-72 485,-72 515,-72 515,-72 521,-72 527,-78 527,-84 527,-84 527,-96 527,-96 527,-102 521,-108 515,-108"/>
<text text-anchor="middle" x="500" y="-87.5" font-family="sans" font-size="10.00">fin</text>
</g>
<!-- 1&#45;&gt;0 -->
<g id="edge1" class="edge">
<title>1&#45;&gt;0</title>
<path fill="none" stroke="grey" stroke-width="2" d="M500,-71.7C500,-63.98 500,-54.71 500,-46.11"/>
<polygon fill="grey" stroke="grey" stroke-width="2" points="503.5,-46.1 500,-36.1 496.5,-46.1 503.5,-46.1"/>
</g>
<!-- 2 -->
<g id="node3" class="node">
<title>2</title>
<path fill="none" stroke="#56d8c9" stroke-width="2" stroke-dasharray="5,2" d="M189.5,-180C189.5,-180 154.5,-180 154.5,-180 148.5,-180 142.5,-174 142.5,-168 142.5,-168 142.5,-156 142.5,-156 142.5,-150 148.5,-144 154.5,-144 154.5,-144 189.5,-144 189.5,-144 195.5,-144 201.5,-150 201.5,-156 201.5,-156 201.5,-168 201.5,-168 201.5,-174 195.5,-180 189.5,-180"/>
<text text-anchor="middle" x="172" y="-159.5" font-family="sans" font-size="10.00">bedtools</text>
</g>
<!-- 2&#45;&gt;1 -->
<g id="edge2" class="edge">
<title>2&#45;&gt;1</title>
<path fill="none" stroke="grey" stroke-width="2" d="M201.69,-154.66C261.71,-141.85 397.36,-112.9 463.02,-98.89"/>
<polygon fill="grey" stroke="grey" stroke-width="2" points="463.88,-102.29 472.93,-96.78 462.42,-95.44 463.88,-102.29"/>
</g>
<!-- 3 -->
<g id="node4" class="node">
<title>3</title>
<path fill="none" stroke="#56d8c9" stroke-width="2" stroke-dasharray="5,2" d="M314.5,-180C314.5,-180 279.5,-180 279.5,-180 273.5,-180 267.5,-174 267.5,-168 267.5,-168 267.5,-156 267.5,-156 267.5,-150 273.5,-144 279.5,-144 279.5,-144 314.5,-144 314.5,-144 320.5,-144 326.5,-150 326.5,-156 326.5,-156 326.5,-168 326.5,-168 326.5,-174 320.5,-180 314.5,-180"/>
<text text-anchor="middle" x="297" y="-159.5" font-family="sans" font-size="10.00">bedtools</text>
</g>
<!-- 3&#45;&gt;1 -->
<g id="edge3" class="edge">
<title>3&#45;&gt;1</title>
<path fill="none" stroke="grey" stroke-width="2" d="M326.52,-150.82C362.71,-138.34 424.05,-117.19 463.26,-103.67"/>
<polygon fill="grey" stroke="grey" stroke-width="2" points="464.41,-106.97 472.72,-100.41 462.13,-100.36 464.41,-106.97"/>
</g>
<!-- 4 -->
<g id="node5" class="node">
<title>4</title>
<path fill="none" stroke="#56d8c9" stroke-width="2" stroke-dasharray="5,2" d="M458.5,-180C458.5,-180 423.5,-180 423.5,-180 417.5,-180 411.5,-174 411.5,-168 411.5,-168 411.5,-156 411.5,-156 411.5,-150 417.5,-144 423.5,-144 423.5,-144 458.5,-144 458.5,-144 464.5,-144 470.5,-150 470.5,-156 470.5,-156 470.5,-168 470.5,-168 470.5,-174 464.5,-180 458.5,-180"/>
<text text-anchor="middle" x="441" y="-159.5" font-family="sans" font-size="10.00">bedtools</text>
</g>
<!-- 4&#45;&gt;1 -->
<g id="edge4" class="edge">
<title>4&#45;&gt;1</title>
<path fill="none" stroke="grey" stroke-width="2" d="M455.58,-143.7C462.66,-135.3 471.28,-125.07 479.05,-115.86"/>
<polygon fill="grey" stroke="grey" stroke-width="2" points="481.81,-118.01 485.58,-108.1 476.46,-113.49 481.81,-118.01"/>
</g>
<!-- 5 -->
<g id="node6" class="node">
<title>5</title>
<path fill="none" stroke="#56d8c9" stroke-width="2" stroke-dasharray="5,2" d="M577.5,-180C577.5,-180 542.5,-180 542.5,-180 536.5,-180 530.5,-174 530.5,-168 530.5,-168 530.5,-156 530.5,-156 530.5,-150 536.5,-144 542.5,-144 542.5,-144 577.5,-144 577.5,-144 583.5,-144 589.5,-150 589.5,-156 589.5,-156 589.5,-168 589.5,-168 589.5,-174 583.5,-180 577.5,-180"/>
<text text-anchor="middle" x="560" y="-159.5" font-family="sans" font-size="10.00">bedtools</text>
</g>
<!-- 5&#45;&gt;1 -->
<g id="edge5" class="edge">
<title>5&#45;&gt;1</title>
<path fill="none" stroke="grey" stroke-width="2" d="M545.17,-143.7C537.98,-135.3 529.2,-125.07 521.31,-115.86"/>
<polygon fill="grey" stroke="grey" stroke-width="2" points="523.83,-113.42 514.66,-108.1 518.51,-117.97 523.83,-113.42"/>
</g>
<!-- 6 -->
<g id="node7" class="node">
<title>6</title>
<path fill="none" stroke="#56d8c9" stroke-width="2" stroke-dasharray="5,2" d="M726.5,-180C726.5,-180 691.5,-180 691.5,-180 685.5,-180 679.5,-174 679.5,-168 679.5,-168 679.5,-156 679.5,-156 679.5,-150 685.5,-144 691.5,-144 691.5,-144 726.5,-144 726.5,-144 732.5,-144 738.5,-150 738.5,-156 738.5,-156 738.5,-168 738.5,-168 738.5,-174 732.5,-180 726.5,-180"/>
<text text-anchor="middle" x="709" y="-159.5" font-family="sans" font-size="10.00">bedtools</text>
</g>
<!-- 6&#45;&gt;1 -->
<g id="edge6" class="edge">
<title>6&#45;&gt;1</title>
<path fill="none" stroke="grey" stroke-width="2" d="M679.5,-151.12C641.97,-138.55 577.17,-116.85 536.56,-103.24"/>
<polygon fill="grey" stroke="grey" stroke-width="2" points="537.62,-99.91 527.03,-100.05 535.4,-106.55 537.62,-99.91"/>
</g>
<!-- 7 -->
<g id="node8" class="node">
<title>7</title>
<path fill="none" stroke="#56d8c9" stroke-width="2" stroke-dasharray="5,2" d="M900.5,-180C900.5,-180 865.5,-180 865.5,-180 859.5,-180 853.5,-174 853.5,-168 853.5,-168 853.5,-156 853.5,-156 853.5,-150 859.5,-144 865.5,-144 865.5,-144 900.5,-144 900.5,-144 906.5,-144 912.5,-150 912.5,-156 912.5,-156 912.5,-168 912.5,-168 912.5,-174 906.5,-180 900.5,-180"/>
<text text-anchor="middle" x="883" y="-159.5" font-family="sans" font-size="10.00">bedtools</text>
</g>
<!-- 7&#45;&gt;1 -->
<g id="edge7" class="edge">
<title>7&#45;&gt;1</title>
<path fill="none" stroke="grey" stroke-width="2" d="M853.27,-155.57C784.19,-142.94 613.01,-111.65 537.18,-97.79"/>
<polygon fill="grey" stroke="grey" stroke-width="2" points="537.6,-94.31 527.13,-95.96 536.34,-101.2 537.6,-94.31"/>
</g>
<!-- 8 -->
<g id="node9" class="node">
<title>8</title>
<path fill="none" stroke="#d8a456" stroke-width="2" stroke-dasharray="5,2" d="M144,-257C144,-257 12,-257 12,-257 6,-257 0,-251 0,-245 0,-245 0,-228 0,-228 0,-222 6,-216 12,-216 12,-216 144,-216 144,-216 150,-216 156,-222 156,-228 156,-228 156,-245 156,-245 156,-251 150,-257 144,-257"/>
<text text-anchor="middle" x="78" y="-245" font-family="sans" font-size="10.00">augustus</text>
<text text-anchor="middle" x="78" y="-234" font-family="sans" font-size="10.00">BD: DNAZoo</text>
<text text-anchor="middle" x="78" y="-223" font-family="sans" font-size="10.00">espece: Globicephala_melas</text>
</g>
<!-- 8&#45;&gt;2 -->
<g id="edge8" class="edge">
<title>8&#45;&gt;2</title>
<path fill="none" stroke="grey" stroke-width="2" d="M103.69,-215.69C115.43,-206.63 129.44,-195.83 141.7,-186.37"/>
<polygon fill="grey" stroke="grey" stroke-width="2" points="144.08,-188.96 149.86,-180.08 139.8,-183.41 144.08,-188.96"/>
</g>
<!-- 9 -->
<g id="node10" class="node">
<title>9</title>
<path fill="none" stroke="#d8a456" stroke-width="2" stroke-dasharray="5,2" d="M318,-257C318,-257 186,-257 186,-257 180,-257 174,-251 174,-245 174,-245 174,-228 174,-228 174,-222 180,-216 186,-216 186,-216 318,-216 318,-216 324,-216 330,-222 330,-228 330,-228 330,-245 330,-245 330,-251 324,-257 318,-257"/>
<text text-anchor="middle" x="252" y="-245" font-family="sans" font-size="10.00">augustus</text>
<text text-anchor="middle" x="252" y="-234" font-family="sans" font-size="10.00">BD: NCBI</text>
<text text-anchor="middle" x="252" y="-223" font-family="sans" font-size="10.00">espece: Globicephala_melas</text>
</g>
<!-- 9&#45;&gt;3 -->
<g id="edge9" class="edge">
<title>9&#45;&gt;3</title>
<path fill="none" stroke="grey" stroke-width="2" d="M264.3,-215.69C269.4,-207.47 275.38,-197.83 280.83,-189.05"/>
<polygon fill="grey" stroke="grey" stroke-width="2" points="283.95,-190.66 286.25,-180.32 278,-186.97 283.95,-190.66"/>
</g>
<!-- 10 -->
<g id="node11" class="node">
<title>10</title>
<path fill="none" stroke="#d8a456" stroke-width="2" stroke-dasharray="5,2" d="M479.5,-257C479.5,-257 360.5,-257 360.5,-257 354.5,-257 348.5,-251 348.5,-245 348.5,-245 348.5,-228 348.5,-228 348.5,-222 354.5,-216 360.5,-216 360.5,-216 479.5,-216 479.5,-216 485.5,-216 491.5,-222 491.5,-228 491.5,-228 491.5,-245 491.5,-245 491.5,-251 485.5,-257 479.5,-257"/>
<text text-anchor="middle" x="420" y="-245" font-family="sans" font-size="10.00">augustus</text>
<text text-anchor="middle" x="420" y="-234" font-family="sans" font-size="10.00">BD: DNAZoo</text>
<text text-anchor="middle" x="420" y="-223" font-family="sans" font-size="10.00">espece: Tursiop_truncatus</text>
</g>
<!-- 10&#45;&gt;4 -->
<g id="edge10" class="edge">
<title>10&#45;&gt;4</title>
<path fill="none" stroke="grey" stroke-width="2" d="M425.74,-215.69C428.02,-207.82 430.68,-198.64 433.13,-190.17"/>
<polygon fill="grey" stroke="grey" stroke-width="2" points="436.56,-190.9 435.98,-180.32 429.84,-188.95 436.56,-190.9"/>
</g>
<!-- 11 -->
<g id="node12" class="node">
<title>11</title>
<path fill="none" stroke="#d8a456" stroke-width="2" stroke-dasharray="5,2" d="M640.5,-257C640.5,-257 521.5,-257 521.5,-257 515.5,-257 509.5,-251 509.5,-245 509.5,-245 509.5,-228 509.5,-228 509.5,-222 515.5,-216 521.5,-216 521.5,-216 640.5,-216 640.5,-216 646.5,-216 652.5,-222 652.5,-228 652.5,-228 652.5,-245 652.5,-245 652.5,-251 646.5,-257 640.5,-257"/>
<text text-anchor="middle" x="581" y="-245" font-family="sans" font-size="10.00">augustus</text>
<text text-anchor="middle" x="581" y="-234" font-family="sans" font-size="10.00">BD: NCBI</text>
<text text-anchor="middle" x="581" y="-223" font-family="sans" font-size="10.00">espece: Tursiop_truncatus</text>
</g>
<!-- 11&#45;&gt;5 -->
<g id="edge11" class="edge">
<title>11&#45;&gt;5</title>
<path fill="none" stroke="grey" stroke-width="2" d="M575.26,-215.69C572.98,-207.82 570.32,-198.64 567.87,-190.17"/>
<polygon fill="grey" stroke="grey" stroke-width="2" points="571.16,-188.95 565.02,-180.32 564.44,-190.9 571.16,-188.95"/>
</g>
<!-- 12 -->
<g id="node13" class="node">
<title>12</title>
<path fill="none" stroke="#d8a456" stroke-width="2" stroke-dasharray="5,2" d="M839.5,-257C839.5,-257 682.5,-257 682.5,-257 676.5,-257 670.5,-251 670.5,-245 670.5,-245 670.5,-228 670.5,-228 670.5,-222 676.5,-216 682.5,-216 682.5,-216 839.5,-216 839.5,-216 845.5,-216 851.5,-222 851.5,-228 851.5,-228 851.5,-245 851.5,-245 851.5,-251 845.5,-257 839.5,-257"/>
<text text-anchor="middle" x="761" y="-245" font-family="sans" font-size="10.00">augustus</text>
<text text-anchor="middle" x="761" y="-234" font-family="sans" font-size="10.00">BD: DNAZoo</text>
<text text-anchor="middle" x="761" y="-223" font-family="sans" font-size="10.00">espece: Megaptera_novaeangliae</text>
</g>
<!-- 12&#45;&gt;6 -->
<g id="edge12" class="edge">
<title>12&#45;&gt;6</title>
<path fill="none" stroke="grey" stroke-width="2" d="M746.79,-215.69C740.77,-207.3 733.69,-197.42 727.29,-188.5"/>
<polygon fill="grey" stroke="grey" stroke-width="2" points="730.09,-186.41 721.42,-180.32 724.41,-190.49 730.09,-186.41"/>
</g>
<!-- 13 -->
<g id="node14" class="node">
<title>13</title>
<path fill="none" stroke="#d8a456" stroke-width="2" stroke-dasharray="5,2" d="M1038.5,-257C1038.5,-257 881.5,-257 881.5,-257 875.5,-257 869.5,-251 869.5,-245 869.5,-245 869.5,-228 869.5,-228 869.5,-222 875.5,-216 881.5,-216 881.5,-216 1038.5,-216 1038.5,-216 1044.5,-216 1050.5,-222 1050.5,-228 1050.5,-228 1050.5,-245 1050.5,-245 1050.5,-251 1044.5,-257 1038.5,-257"/>
<text text-anchor="middle" x="960" y="-245" font-family="sans" font-size="10.00">augustus</text>
<text text-anchor="middle" x="960" y="-234" font-family="sans" font-size="10.00">BD: NCBI</text>
<text text-anchor="middle" x="960" y="-223" font-family="sans" font-size="10.00">espece: Megaptera_novaeangliae</text>
</g>
<!-- 13&#45;&gt;7 -->
<g id="edge13" class="edge">
<title>13&#45;&gt;7</title>
<path fill="none" stroke="grey" stroke-width="2" d="M938.96,-215.69C929.61,-206.89 918.53,-196.45 908.7,-187.19"/>
<polygon fill="grey" stroke="grey" stroke-width="2" points="910.82,-184.39 901.14,-180.08 906.02,-189.48 910.82,-184.39"/>
</g>
</g>
</svg>
