<?xml version="1.0" encoding="UTF-8" standalone="no"?>
<!DOCTYPE svg PUBLIC "-//W3C//DTD SVG 1.1//EN"
 "http://www.w3.org/Graphics/SVG/1.1/DTD/svg11.dtd">
<!-- Generated by graphviz version 2.43.0 (0)
 -->
<!-- Title: snakemake_dag Pages: 1 -->
<svg width="1059pt" height="193pt"
 viewBox="0.00 0.00 1058.50 193.00" xmlns="http://www.w3.org/2000/svg" xmlns:xlink="http://www.w3.org/1999/xlink">
<g id="graph0" class="graph" transform="scale(1 1) rotate(0) translate(4 189)">
<title>snakemake_dag</title>
<polygon fill="white" stroke="transparent" points="-4,4 -4,-189 1054.5,-189 1054.5,4 -4,4"/>
<!-- 0 -->
<g id="node1" class="node">
<title>0</title>
<path fill="none" stroke="#78d856" stroke-width="2" d="M515,-36C515,-36 485,-36 485,-36 479,-36 473,-30 473,-24 473,-24 473,-12 473,-12 473,-6 479,0 485,0 485,0 515,0 515,0 521,0 527,-6 527,-12 527,-12 527,-24 527,-24 527,-30 521,-36 515,-36"/>
<text text-anchor="middle" x="500" y="-15.5" font-family="sans" font-size="10.00">all</text>
</g>
<!-- 1 -->
<g id="node2" class="node">
<title>1</title>
<path fill="none" stroke="#d85656" stroke-width="2" d="M515,-108C515,-108 485,-108 485,-108 479,-108 473,-102 473,-96 473,-96 473,-84 473,-84 473,-78 479,-72 485,-72 485,-72 515,-72 515,-72 521,-72 527,-78 527,-84 527,-84 527,-96 527,-96 527,-102 521,-108 515,-108"/>
<text text-anchor="middle" x="500" y="-87.5" font-family="sans" font-size="10.00">fin</text>
</g>
<!-- 1&#45;&gt;0 -->
<g id="edge1" class="edge">
<title>1&#45;&gt;0</title>
<path fill="none" stroke="grey" stroke-width="2" d="M500,-71.7C500,-63.98 500,-54.71 500,-46.11"/>
<polygon fill="grey" stroke="grey" stroke-width="2" points="503.5,-46.1 500,-36.1 496.5,-46.1 503.5,-46.1"/>
</g>
<!-- 2 -->
<g id="node3" class="node">
<title>2</title>
<path fill="none" stroke="#d8a456" stroke-width="2" d="M144,-185C144,-185 12,-185 12,-185 6,-185 0,-179 0,-173 0,-173 0,-156 0,-156 0,-150 6,-144 12,-144 12,-144 144,-144 144,-144 150,-144 156,-150 156,-156 156,-156 156,-173 156,-173 156,-179 150,-185 144,-185"/>
<text text-anchor="middle" x="78" y="-173" font-family="sans" font-size="10.00">augustus</text>
<text text-anchor="middle" x="78" y="-162" font-family="sans" font-size="10.00">BD: DNAZoo</text>
<text text-anchor="middle" x="78" y="-151" font-family="sans" font-size="10.00">espece: Globicephala_melas</text>
</g>
<!-- 2&#45;&gt;1 -->
<g id="edge2" class="edge">
<title>2&#45;&gt;1</title>
<path fill="none" stroke="grey" stroke-width="2" d="M156.21,-145.72C159.17,-145.13 162.11,-144.55 165,-144 272.71,-123.43 400.99,-104.74 462.91,-96.08"/>
<polygon fill="grey" stroke="grey" stroke-width="2" points="463.55,-99.53 472.98,-94.68 462.59,-92.59 463.55,-99.53"/>
</g>
<!-- 3 -->
<g id="node4" class="node">
<title>3</title>
<path fill="none" stroke="#d8a456" stroke-width="2" d="M318,-185C318,-185 186,-185 186,-185 180,-185 174,-179 174,-173 174,-173 174,-156 174,-156 174,-150 180,-144 186,-144 186,-144 318,-144 318,-144 324,-144 330,-150 330,-156 330,-156 330,-173 330,-173 330,-179 324,-185 318,-185"/>
<text text-anchor="middle" x="252" y="-173" font-family="sans" font-size="10.00">augustus</text>
<text text-anchor="middle" x="252" y="-162" font-family="sans" font-size="10.00">BD: NCBI</text>
<text text-anchor="middle" x="252" y="-151" font-family="sans" font-size="10.00">espece: Globicephala_melas</text>
</g>
<!-- 3&#45;&gt;1 -->
<g id="edge3" class="edge">
<title>3&#45;&gt;1</title>
<path fill="none" stroke="grey" stroke-width="2" d="M318.79,-143.98C365.14,-130.42 425.16,-112.88 463.14,-101.78"/>
<polygon fill="grey" stroke="grey" stroke-width="2" points="464.15,-105.13 472.77,-98.96 462.18,-98.41 464.15,-105.13"/>
</g>
<!-- 4 -->
<g id="node5" class="node">
<title>4</title>
<path fill="none" stroke="#d8a456" stroke-width="2" d="M479.5,-185C479.5,-185 360.5,-185 360.5,-185 354.5,-185 348.5,-179 348.5,-173 348.5,-173 348.5,-156 348.5,-156 348.5,-150 354.5,-144 360.5,-144 360.5,-144 479.5,-144 479.5,-144 485.5,-144 491.5,-150 491.5,-156 491.5,-156 491.5,-173 491.5,-173 491.5,-179 485.5,-185 479.5,-185"/>
<text text-anchor="middle" x="420" y="-173" font-family="sans" font-size="10.00">augustus</text>
<text text-anchor="middle" x="420" y="-162" font-family="sans" font-size="10.00">BD: DNAZoo</text>
<text text-anchor="middle" x="420" y="-151" font-family="sans" font-size="10.00">espece: Tursiop_truncatus</text>
</g>
<!-- 4&#45;&gt;1 -->
<g id="edge4" class="edge">
<title>4&#45;&gt;1</title>
<path fill="none" stroke="grey" stroke-width="2" d="M441.86,-143.69C451.67,-134.8 463.32,-124.24 473.61,-114.92"/>
<polygon fill="grey" stroke="grey" stroke-width="2" points="476.1,-117.39 481.16,-108.08 471.39,-112.2 476.1,-117.39"/>
</g>
<!-- 5 -->
<g id="node6" class="node">
<title>5</title>
<path fill="none" stroke="#d8a456" stroke-width="2" d="M640.5,-185C640.5,-185 521.5,-185 521.5,-185 515.5,-185 509.5,-179 509.5,-173 509.5,-173 509.5,-156 509.5,-156 509.5,-150 515.5,-144 521.5,-144 521.5,-144 640.5,-144 640.5,-144 646.5,-144 652.5,-150 652.5,-156 652.5,-156 652.5,-173 652.5,-173 652.5,-179 646.5,-185 640.5,-185"/>
<text text-anchor="middle" x="581" y="-173" font-family="sans" font-size="10.00">augustus</text>
<text text-anchor="middle" x="581" y="-162" font-family="sans" font-size="10.00">BD: NCBI</text>
<text text-anchor="middle" x="581" y="-151" font-family="sans" font-size="10.00">espece: Tursiop_truncatus</text>
</g>
<!-- 5&#45;&gt;1 -->
<g id="edge5" class="edge">
<title>5&#45;&gt;1</title>
<path fill="none" stroke="grey" stroke-width="2" d="M558.87,-143.69C548.94,-134.8 537.14,-124.24 526.72,-114.92"/>
<polygon fill="grey" stroke="grey" stroke-width="2" points="528.87,-112.14 519.08,-108.08 524.2,-117.36 528.87,-112.14"/>
</g>
<!-- 6 -->
<g id="node7" class="node">
<title>6</title>
<path fill="none" stroke="#d8a456" stroke-width="2" d="M839.5,-185C839.5,-185 682.5,-185 682.5,-185 676.5,-185 670.5,-179 670.5,-173 670.5,-173 670.5,-156 670.5,-156 670.5,-150 676.5,-144 682.5,-144 682.5,-144 839.5,-144 839.5,-144 845.5,-144 851.5,-150 851.5,-156 851.5,-156 851.5,-173 851.5,-173 851.5,-179 845.5,-185 839.5,-185"/>
<text text-anchor="middle" x="761" y="-173" font-family="sans" font-size="10.00">augustus</text>
<text text-anchor="middle" x="761" y="-162" font-family="sans" font-size="10.00">BD: DNAZoo</text>
<text text-anchor="middle" x="761" y="-151" font-family="sans" font-size="10.00">espece: Megaptera_novaeangliae</text>
</g>
<!-- 6&#45;&gt;1 -->
<g id="edge6" class="edge">
<title>6&#45;&gt;1</title>
<path fill="none" stroke="grey" stroke-width="2" d="M690.71,-143.98C641.13,-130.2 576.69,-112.3 536.85,-101.24"/>
<polygon fill="grey" stroke="grey" stroke-width="2" points="537.6,-97.81 527.03,-98.51 535.73,-104.56 537.6,-97.81"/>
</g>
<!-- 7 -->
<g id="node8" class="node">
<title>7</title>
<path fill="none" stroke="#d8a456" stroke-width="2" d="M1038.5,-185C1038.5,-185 881.5,-185 881.5,-185 875.5,-185 869.5,-179 869.5,-173 869.5,-173 869.5,-156 869.5,-156 869.5,-150 875.5,-144 881.5,-144 881.5,-144 1038.5,-144 1038.5,-144 1044.5,-144 1050.5,-150 1050.5,-156 1050.5,-156 1050.5,-173 1050.5,-173 1050.5,-179 1044.5,-185 1038.5,-185"/>
<text text-anchor="middle" x="960" y="-173" font-family="sans" font-size="10.00">augustus</text>
<text text-anchor="middle" x="960" y="-162" font-family="sans" font-size="10.00">BD: NCBI</text>
<text text-anchor="middle" x="960" y="-151" font-family="sans" font-size="10.00">espece: Megaptera_novaeangliae</text>
</g>
<!-- 7&#45;&gt;1 -->
<g id="edge7" class="edge">
<title>7&#45;&gt;1</title>
<path fill="none" stroke="grey" stroke-width="2" d="M869.4,-145.47C866.57,-144.97 863.76,-144.47 861,-144 743.31,-123.78 603.21,-104.6 537.51,-95.89"/>
<polygon fill="grey" stroke="grey" stroke-width="2" points="537.62,-92.38 527.24,-94.54 536.7,-99.32 537.62,-92.38"/>
</g>
</g>
</svg>
